<svg data-v-fde0c5aa="" xmlns="http://www.w3.org/2000/svg" viewBox="0 0 300 300" class="iconAbove"><!----><defs data-v-fde0c5aa=""><!----></defs><rect data-v-fde0c5aa="" fill="transparent" x="0" y="0" width="300px" height="300px" class="logo-background-square"></rect><defs data-v-fde0c5aa=""><!----></defs><g data-v-fde0c5aa="" id="f7cd5a30-90bc-4bed-a949-43ffb0e63647" fill="#000000" transform="matrix(4.167292594909668,0,0,4.167292594909668,10.916604057099924,162.64638116704234)"><path d="M2.35 14.45L2.35 14.45L2.35 14.45Q2.56 13.99 2.86 13.26L2.86 13.26L2.86 13.26Q3.15 12.53 3.47 11.68L3.47 11.68L3.47 11.68Q3.79 10.84 4.13 9.95L4.13 9.95L4.13 9.95Q4.47 9.06 4.76 8.26L4.76 8.26L4.76 8.26Q5.05 7.46 5.27 6.83L5.27 6.83L5.27 6.83Q5.49 6.20 5.59 5.87L5.59 5.87L5.59 5.87Q4.70 6.23 4.07 6.97L4.07 6.97L4.07 6.97Q3.44 7.71 3.12 8.83L3.12 8.83L3.12 8.83Q2.80 8.72 2.53 8.43L2.53 8.43L2.53 8.43Q2.27 8.15 2.18 7.71L2.18 7.71L2.18 7.71Q2.32 7.07 2.71 6.54L2.71 6.54L2.71 6.54Q3.09 6.01 3.68 5.63L3.68 5.63L3.68 5.63Q4.27 5.25 5.04 5.05L5.04 5.05L5.04 5.05Q5.81 4.84 6.69 4.84L6.69 4.84L6.69 4.84Q7.81 4.84 8.75 5.17L8.75 5.17L8.75 5.17Q9.69 5.50 10.36 6.09L10.36 6.09L10.36 6.09Q11.03 6.68 11.41 7.50L11.41 7.50L11.41 7.50Q11.79 8.33 11.79 9.34L11.79 9.34L11.79 9.34Q11.79 10.71 11.28 11.96L11.28 11.96L11.28 11.96Q10.78 13.20 9.92 14.15L9.92 14.15L9.92 14.15Q9.06 15.11 7.92 15.67L7.92 15.67L7.92 15.67Q6.79 16.24 5.54 16.24L5.54 16.24L5.54 16.24Q4.40 16.24 3.58 15.79L3.58 15.79L3.58 15.79Q2.76 15.33 2.35 14.45ZM7.29 5.54L7.29 5.54L7.29 5.54Q6.59 5.54 5.96 5.74L5.96 5.74L5.96 5.74Q6.58 5.96 6.99 6.21L6.99 6.21L6.99 6.21Q7.39 6.45 7.55 6.59L7.55 6.59L7.55 6.59Q7.43 6.75 7.22 7.14L7.22 7.14L7.22 7.14Q7 7.53 6.71 8.09L6.71 8.09L6.71 8.09Q6.43 8.65 6.10 9.32L6.10 9.32L6.10 9.32Q5.78 9.98 5.47 10.68L5.47 10.68L5.47 10.68Q4.68 12.46 4.32 13.48L4.32 13.48L4.32 13.48Q3.96 14.50 3.96 14.90L3.96 14.90L3.96 14.90Q4.16 14.97 4.44 14.99L4.44 14.99L4.44 14.99Q4.72 15.02 5.04 15.02L5.04 15.02L5.04 15.02Q6.17 15.02 7.19 14.50L7.19 14.50L7.19 14.50Q8.20 13.97 8.97 13.09L8.97 13.09L8.97 13.09Q9.73 12.21 10.17 11.04L10.17 11.04L10.17 11.04Q10.61 9.87 10.61 8.58L10.61 8.58L10.61 8.58Q10.61 7.14 9.72 6.34L9.72 6.34L9.72 6.34Q8.82 5.54 7.29 5.54ZM11.80 14.90L11.80 14.90L11.80 14.90Q11.87 14.49 12.05 13.82L12.05 13.82L12.05 13.82Q12.22 13.16 12.46 12.41L12.46 12.41L12.46 12.41Q12.70 11.66 12.96 10.91L12.96 10.91L12.96 10.91Q13.23 10.15 13.48 9.55L13.48 9.55L13.48 9.55Q13.66 9.11 13.80 8.87L13.80 8.87L13.80 8.87Q13.94 8.62 14.11 8.46L14.11 8.46L14.11 8.46Q14.31 8.48 14.52 8.55L14.52 8.55L14.52 8.55Q14.73 8.62 14.92 8.72L14.92 8.72L14.92 8.72Q15.12 8.82 15.27 8.93L15.27 8.93L15.27 8.93Q15.43 9.03 15.51 9.13L15.51 9.13L15.51 9.13Q15.13 9.58 14.85 10.15L14.85 10.15L14.85 10.15Q14.56 10.72 14.27 11.62L14.27 11.62L14.27 11.62Q15.02 10.95 15.60 10.33L15.60 10.33L15.60 10.33Q16.18 9.72 16.69 8.96L16.69 8.96L16.69 8.96Q16.77 8.89 16.98 8.89L16.98 8.89L16.98 8.89Q17.18 8.89 17.36 8.95L17.36 8.95L17.36 8.95Q17.54 9.02 17.61 9.13L17.61 9.13L17.61 9.13Q17.36 9.80 17.36 10.46L17.36 10.46L17.36 10.46Q17.36 11.07 17.54 11.38L17.54 11.38L17.54 11.38Q17.53 11.47 17.35 11.70L17.35 11.70L17.35 11.70Q17.18 11.94 16.97 12.15L16.97 12.15L16.97 12.15Q16.59 11.96 16.30 11.61L16.30 11.61L16.30 11.61Q16.00 11.27 15.86 10.86L15.86 10.86L15.86 10.86Q15.20 11.33 14.74 11.77L14.74 11.77L14.74 11.77Q14.28 12.21 13.95 12.75L13.95 12.75L13.95 12.75Q13.62 13.29 13.39 13.99L13.39 13.99L13.39 13.99Q13.16 14.69 12.95 15.65L12.95 15.65L12.95 15.65Q12.82 15.64 12.65 15.56L12.65 15.56L12.65 15.56Q12.47 15.48 12.30 15.37L12.30 15.37L12.30 15.37Q12.12 15.26 11.98 15.13L11.98 15.13L11.98 15.13Q11.84 15.01 11.80 14.90ZM22.79 9.38L22.79 9.38L22.79 9.38Q22.74 10.25 22.48 10.87L22.48 10.87L22.48 10.87Q22.23 11.49 21.76 11.96L21.76 11.96L21.76 11.96Q21.29 12.43 20.62 12.81L20.62 12.81L20.62 12.81Q19.95 13.19 19.05 13.54L19.05 13.54L19.05 13.54Q19.05 13.62 19.05 13.71L19.05 13.71L19.05 13.71Q19.04 13.80 19.04 13.90L19.04 13.90L19.04 13.90Q19.04 14.08 19.07 14.28L19.07 14.28L19.07 14.28Q19.10 14.48 19.17 14.64L19.17 14.64L19.17 14.64Q19.24 14.81 19.36 14.92L19.36 14.92L19.36 14.92Q19.49 15.02 19.68 15.02L19.68 15.02L19.68 15.02Q20.06 15.02 20.43 14.85L20.43 14.85L20.43 14.85Q20.79 14.69 21.12 14.44L21.12 14.44L21.12 14.44Q21.45 14.20 21.73 13.91L21.73 13.91L21.73 13.91Q22.02 13.62 22.25 13.38L22.25 13.38L22.25 13.38Q22.39 13.51 22.48 13.62L22.48 13.62L22.48 13.62Q21.85 14.46 21.11 15.02L21.11 15.02L21.11 15.02Q20.36 15.57 19.68 15.72L19.68 15.72L19.68 15.72Q18.72 15.61 18.18 15.02L18.18 15.02L18.18 15.02Q17.64 14.42 17.64 13.58L17.64 13.58L17.64 13.58Q17.64 13.01 17.80 12.41L17.80 12.41L17.80 12.41Q17.96 11.82 18.25 11.26L18.25 11.26L18.25 11.26Q18.54 10.71 18.92 10.22L18.92 10.22L18.92 10.22Q19.31 9.73 19.75 9.37L19.75 9.37L19.75 9.37Q20.19 9.00 20.66 8.79L20.66 8.79L20.66 8.79Q21.13 8.58 21.59 8.58L21.59 8.58L21.59 8.58Q22.23 8.67 22.79 9.38ZM21.83 9.84L21.83 9.84L21.83 9.84Q21.45 9.90 21.04 10.15L21.04 10.15L21.04 10.15Q20.64 10.40 20.28 10.82L20.28 10.82L20.28 10.82Q19.92 11.24 19.63 11.80L19.63 11.80L19.63 11.80Q19.33 12.36 19.17 13.01L19.17 13.01L19.17 13.01Q20.29 12.45 21.03 11.63L21.03 11.63L21.03 11.63Q21.77 10.81 21.83 9.84ZM28.27 9.52L28.27 9.52L28.27 9.52Q28.41 9.52 28.59 9.57L28.59 9.57L28.59 9.57Q28.78 9.62 28.94 9.70L28.94 9.70L28.94 9.70Q29.09 9.77 29.20 9.86L29.20 9.86L29.20 9.86Q29.30 9.94 29.30 10.01L29.30 10.01L29.30 10.01Q29.02 10.60 28.78 11.19L28.78 11.19L28.78 11.19Q28.55 11.79 28.38 12.33L28.38 12.33L28.38 12.33Q28.21 12.88 28.12 13.36L28.12 13.36L28.12 13.36Q28.03 13.83 28.03 14.18L28.03 14.18L28.03 14.18Q28.03 14.57 28.11 14.83L28.11 14.83L28.11 14.83Q28.20 15.09 28.39 15.20L28.39 15.20L28.39 15.20Q28.22 15.32 27.96 15.39L27.96 15.39L27.96 15.39Q27.69 15.46 27.48 15.46L27.48 15.46L27.48 15.46Q26.73 15.46 26.73 14.42L26.73 14.42L26.73 14.42Q26.73 13.62 27.26 12.24L27.26 12.24L27.26 12.24Q26.98 12.88 26.61 13.45L26.61 13.45L26.61 13.45Q26.25 14.01 25.87 14.45L25.87 14.45L25.87 14.45Q25.49 14.88 25.11 15.15L25.11 15.15L25.11 15.15Q24.72 15.43 24.40 15.48L24.40 15.48L24.40 15.48Q23.88 15.46 23.56 14.99L23.56 14.99L23.56 14.99Q23.24 14.52 23.24 13.79L23.24 13.79L23.24 13.79Q23.24 13.01 23.58 12.14L23.58 12.14L23.58 12.14Q23.91 11.27 24.44 10.53L24.44 10.53L24.44 10.53Q24.96 9.79 25.58 9.29L25.58 9.29L25.58 9.29Q26.19 8.79 26.77 8.76L26.77 8.76L26.77 8.76Q26.91 8.81 27.08 8.93L27.08 8.93L27.08 8.93Q27.26 9.06 27.42 9.23L27.42 9.23L27.42 9.23Q27.58 9.39 27.69 9.57L27.69 9.57L27.69 9.57Q27.80 9.74 27.82 9.87L27.82 9.87L27.82 9.87Q27.26 9.95 26.66 10.42L26.66 10.42L26.66 10.42Q26.07 10.88 25.59 11.53L25.59 11.53L25.59 11.53Q25.10 12.18 24.79 12.92L24.79 12.92L24.79 12.92Q24.49 13.66 24.49 14.31L24.49 14.31L24.49 14.31Q24.49 14.57 24.68 14.64L24.68 14.64L24.68 14.64Q25.09 14.56 25.62 13.95L25.62 13.95L25.62 13.95Q26.15 13.34 26.91 12.07L26.91 12.07L26.91 12.07Q27.05 11.82 27.22 11.51L27.22 11.51L27.22 11.51Q27.40 11.20 27.58 10.86L27.58 10.86L27.58 10.86Q27.76 10.53 27.94 10.18L27.94 10.18L27.94 10.18Q28.11 9.84 28.27 9.52ZM38.11 10.88L38.11 10.88L38.11 10.88Q37.88 10.89 37.56 11.16L37.56 11.16L37.56 11.16Q37.24 11.44 36.87 11.87L36.87 11.87L36.87 11.87Q36.50 12.29 36.10 12.81L36.10 12.81L36.10 12.81Q35.70 13.33 35.33 13.84L35.33 13.84L35.33 13.84Q34.96 14.35 34.64 14.80L34.64 14.80L34.64 14.80Q34.31 15.25 34.09 15.51L34.09 15.51L34.09 15.51Q33.78 15.39 33.56 15.14L33.56 15.14L33.56 15.14Q33.33 14.90 33.24 14.53L33.24 14.53L33.24 14.53Q33.31 14.10 33.43 13.63L33.43 13.63L33.43 13.63Q33.56 13.16 33.76 12.66L33.76 12.66L33.76 12.66Q33.96 12.15 34.27 11.60L34.27 11.60L34.27 11.60Q34.57 11.05 35 10.43L35 10.43L35 10.43Q34.79 10.44 34.43 10.73L34.43 10.73L34.43 10.73Q34.06 11.02 33.64 11.47L33.64 11.47L33.64 11.47Q33.22 11.93 32.77 12.50L32.77 12.50L32.77 12.50Q32.33 13.06 31.93 13.61L31.93 13.61L31.93 13.61Q31.42 14.34 31.07 14.88L31.07 14.88L31.07 14.88Q30.73 15.43 30.58 15.53L30.58 15.53L30.58 15.53Q30.21 15.26 30.07 14.95L30.07 14.95L30.07 14.95Q29.93 14.64 29.86 14.27L29.86 14.27L29.86 14.27Q29.88 13.93 29.97 13.43L29.97 13.43L29.97 13.43Q30.06 12.92 30.23 12.39L30.23 12.39L30.23 12.39Q30.55 11.37 31.06 10.36L31.06 10.36L31.06 10.36Q31.57 9.35 32.05 8.51L32.05 8.51L32.05 8.51Q32.44 8.60 32.75 8.78L32.75 8.78L32.75 8.78Q33.07 8.96 33.42 9.31L33.42 9.31L33.42 9.31Q33.28 9.74 32.98 10.23L32.98 10.23L32.98 10.23Q32.69 10.71 32.37 11.24L32.37 11.24L32.37 11.24Q32.05 11.77 31.78 12.33L31.78 12.33L31.78 12.33Q31.51 12.89 31.43 13.47L31.43 13.47L31.43 13.47Q31.82 12.91 32.36 12.18L32.36 12.18L32.36 12.18Q32.90 11.45 33.47 10.81L33.47 10.81L33.47 10.81Q34.03 10.16 34.59 9.72L34.59 9.72L34.59 9.72Q35.15 9.27 35.60 9.27L35.60 9.27L35.60 9.27Q35.77 9.27 35.97 9.32L35.97 9.32L35.97 9.32Q36.16 9.38 36.33 9.46L36.33 9.46L36.33 9.46Q36.50 9.55 36.61 9.63L36.61 9.63L36.61 9.63Q36.72 9.70 36.74 9.74L36.74 9.74L36.74 9.74Q36.67 10.02 36.41 10.51L36.41 10.51L36.41 10.51Q36.15 10.99 35.85 11.52L35.85 11.52L35.85 11.52Q35.56 12.05 35.31 12.55L35.31 12.55L35.31 12.55Q35.06 13.05 35.01 13.34L35.01 13.34L35.01 13.34Q35.70 12.40 36.30 11.64L36.30 11.64L36.30 11.64Q36.90 10.88 37.44 10.33L37.44 10.33L37.44 10.33Q37.97 9.79 38.42 9.49L38.42 9.49L38.42 9.49Q38.88 9.20 39.28 9.20L39.28 9.20L39.28 9.20Q39.56 9.20 39.81 9.34L39.81 9.34L39.81 9.34Q40.05 9.49 40.15 9.77L40.15 9.77L40.15 9.77Q40.03 10.19 39.74 10.78L39.74 10.78L39.74 10.78Q39.45 11.37 39.16 12.02L39.16 12.02L39.16 12.02Q38.86 12.67 38.63 13.30L38.63 13.30L38.63 13.30Q38.40 13.93 38.40 14.43L38.40 14.43L38.40 14.43Q38.40 14.73 38.49 14.82L38.49 14.82L38.49 14.82Q38.57 14.91 38.72 14.91L38.72 14.91L38.72 14.91Q38.89 14.91 39.04 14.85L39.04 14.85L39.04 14.85Q39.19 14.78 39.26 14.78L39.26 14.78L39.26 14.78Q39.34 14.84 39.35 14.92L39.35 14.92L39.35 14.92Q39.37 15.01 39.37 15.08L39.37 15.08L39.37 15.08Q39.09 15.30 38.79 15.45L38.79 15.45L38.79 15.45Q38.50 15.60 38.14 15.60L38.14 15.60L38.14 15.60Q37.80 15.60 37.58 15.48L37.58 15.48L37.58 15.48Q37.37 15.37 37.23 15.18L37.23 15.18L37.23 15.18Q37.09 14.98 37.03 14.73L37.03 14.73L37.03 14.73Q36.97 14.48 36.97 14.18L36.97 14.18L36.97 14.18Q36.97 13.71 37.10 13.24L37.10 13.24L37.10 13.24Q37.23 12.77 37.40 12.34L37.40 12.34L37.40 12.34Q37.58 11.91 37.77 11.54L37.77 11.54L37.77 11.54Q37.97 11.17 38.11 10.88ZM44.69 12.43L44.69 12.43L44.69 12.43Q44.69 11.45 44.92 10.51L44.92 10.51L44.92 10.51Q45.15 9.56 45.57 8.71L45.57 8.71L45.57 8.71Q45.99 7.87 46.57 7.16L46.57 7.16L46.57 7.16Q47.15 6.45 47.85 5.94L47.85 5.94L47.85 5.94Q48.54 5.42 49.32 5.13L49.32 5.13L49.32 5.13Q50.11 4.84 50.93 4.84L50.93 4.84L50.93 4.84Q51.90 4.84 52.44 5.25L52.44 5.25L52.44 5.25Q52.98 5.66 52.98 6.38L52.98 6.38L52.98 6.38Q52.98 6.66 52.90 6.96L52.90 6.96L52.90 6.96Q52.82 7.25 52.68 7.54L52.68 7.54L52.68 7.54Q52.53 7.83 52.33 8.09L52.33 8.09L52.33 8.09Q52.14 8.36 51.90 8.55L51.90 8.55L51.90 8.55Q51.53 8.50 51.27 8.22L51.27 8.22L51.27 8.22Q51.00 7.95 50.93 7.59L50.93 7.59L50.93 7.59Q51.42 7.18 51.71 6.74L51.71 6.74L51.71 6.74Q52.00 6.30 52.00 5.94L52.00 5.94L52.00 5.94Q52.00 5.32 51.23 5.32L51.23 5.32L51.23 5.32Q50.90 5.32 50.56 5.45L50.56 5.45L50.56 5.45Q50.22 5.59 49.87 5.82L49.87 5.82L49.87 5.82Q49.52 6.06 49.19 6.40L49.19 6.40L49.19 6.40Q48.86 6.73 48.58 7.14L48.58 7.14L48.58 7.14Q46.63 9.94 46.63 12.87L46.63 12.87L46.63 12.87Q46.63 13.90 46.96 14.53L46.96 14.53L46.96 14.53Q47.28 15.16 47.81 15.27L47.81 15.27L47.81 15.27Q48.41 15.13 49.34 14.50L49.34 14.50L49.34 14.50Q50.26 13.87 51.35 12.87L51.35 12.87L51.35 12.87Q51.49 13.01 51.52 13.16L51.52 13.16L51.52 13.16Q51.11 13.69 50.68 14.18L50.68 14.18L50.68 14.18Q50.25 14.67 49.82 15.08L49.82 15.08L49.82 15.08Q49.39 15.48 48.98 15.79L48.98 15.79L48.98 15.79Q48.57 16.10 48.22 16.27L48.22 16.27L48.22 16.27Q46.48 16.24 45.58 15.27L45.58 15.27L45.58 15.27Q44.69 14.31 44.69 12.43ZM57.34 9.52L57.34 9.52L57.34 9.52Q57.48 9.52 57.67 9.57L57.67 9.57L57.67 9.57Q57.86 9.62 58.02 9.70L58.02 9.70L58.02 9.70Q58.17 9.77 58.28 9.86L58.28 9.86L58.28 9.86Q58.38 9.94 58.38 10.01L58.38 10.01L58.38 10.01Q58.10 10.60 57.86 11.19L57.86 11.19L57.86 11.19Q57.62 11.79 57.46 12.33L57.46 12.33L57.46 12.33Q57.29 12.88 57.20 13.36L57.20 13.36L57.20 13.36Q57.11 13.83 57.11 14.18L57.11 14.18L57.11 14.18Q57.11 14.57 57.19 14.83L57.19 14.83L57.19 14.83Q57.27 15.09 57.47 15.20L57.47 15.20L57.47 15.20Q57.30 15.32 57.04 15.39L57.04 15.39L57.04 15.39Q56.77 15.46 56.56 15.46L56.56 15.46L56.56 15.46Q55.80 15.46 55.80 14.42L55.80 14.42L55.80 14.42Q55.80 13.62 56.34 12.24L56.34 12.24L56.34 12.24Q56.06 12.88 55.69 13.45L55.69 13.45L55.69 13.45Q55.33 14.01 54.95 14.45L54.95 14.45L54.95 14.45Q54.57 14.88 54.19 15.15L54.19 15.15L54.19 15.15Q53.80 15.43 53.48 15.48L53.48 15.48L53.48 15.48Q52.96 15.46 52.64 14.99L52.64 14.99L52.64 14.99Q52.32 14.52 52.32 13.79L52.32 13.79L52.32 13.79Q52.32 13.01 52.65 12.14L52.65 12.14L52.65 12.14Q52.99 11.27 53.52 10.53L53.52 10.53L53.52 10.53Q54.04 9.79 54.66 9.29L54.66 9.29L54.66 9.29Q55.27 8.79 55.85 8.76L55.85 8.76L55.85 8.76Q55.99 8.81 56.16 8.93L56.16 8.93L56.16 8.93Q56.34 9.06 56.50 9.23L56.50 9.23L56.50 9.23Q56.66 9.39 56.77 9.57L56.77 9.57L56.77 9.57Q56.88 9.74 56.90 9.87L56.90 9.87L56.90 9.87Q56.34 9.95 55.74 10.42L55.74 10.42L55.74 10.42Q55.15 10.88 54.66 11.53L54.66 11.53L54.66 11.53Q54.18 12.18 53.87 12.92L53.87 12.92L53.87 12.92Q53.56 13.66 53.56 14.31L53.56 14.31L53.56 14.31Q53.56 14.57 53.76 14.64L53.76 14.64L53.76 14.64Q54.17 14.56 54.70 13.95L54.70 13.95L54.70 13.95Q55.23 13.34 55.99 12.07L55.99 12.07L55.99 12.07Q56.13 11.82 56.30 11.51L56.30 11.51L56.30 11.51Q56.48 11.20 56.66 10.86L56.66 10.86L56.66 10.86Q56.84 10.53 57.02 10.18L57.02 10.18L57.02 10.18Q57.19 9.84 57.34 9.52ZM58.76 14.90L58.76 14.90L58.76 14.90Q58.83 14.49 59.00 13.82L59.00 13.82L59.00 13.82Q59.18 13.16 59.42 12.41L59.42 12.41L59.42 12.41Q59.65 11.66 59.92 10.91L59.92 10.91L59.92 10.91Q60.19 10.15 60.44 9.55L60.44 9.55L60.44 9.55Q60.62 9.11 60.76 8.87L60.76 8.87L60.76 8.87Q60.90 8.62 61.07 8.46L61.07 8.46L61.07 8.46Q61.26 8.48 61.47 8.55L61.47 8.55L61.47 8.55Q61.68 8.62 61.88 8.72L61.88 8.72L61.88 8.72Q62.08 8.82 62.23 8.93L62.23 8.93L62.23 8.93Q62.38 9.03 62.47 9.13L62.47 9.13L62.47 9.13Q62.09 9.58 61.80 10.15L61.80 10.15L61.80 10.15Q61.52 10.72 61.22 11.62L61.22 11.62L61.22 11.62Q61.98 10.95 62.56 10.33L62.56 10.33L62.56 10.33Q63.14 9.72 63.64 8.96L63.64 8.96L63.64 8.96Q63.73 8.89 63.94 8.89L63.94 8.89L63.94 8.89Q64.13 8.89 64.32 8.95L64.32 8.95L64.32 8.95Q64.50 9.02 64.57 9.13L64.57 9.13L64.57 9.13Q64.32 9.80 64.32 10.46L64.32 10.46L64.32 10.46Q64.32 11.07 64.50 11.38L64.50 11.38L64.50 11.38Q64.48 11.47 64.31 11.70L64.31 11.70L64.31 11.70Q64.13 11.94 63.92 12.15L63.92 12.15L63.92 12.15Q63.55 11.96 63.25 11.61L63.25 11.61L63.25 11.61Q62.96 11.27 62.82 10.86L62.82 10.86L62.82 10.86Q62.16 11.33 61.70 11.77L61.70 11.77L61.70 11.77Q61.24 12.21 60.91 12.75L60.91 12.75L60.91 12.75Q60.58 13.29 60.35 13.99L60.35 13.99L60.35 13.99Q60.12 14.69 59.91 15.65L59.91 15.65L59.91 15.65Q59.78 15.64 59.61 15.56L59.61 15.56L59.61 15.56Q59.43 15.48 59.26 15.37L59.26 15.37L59.26 15.37Q59.08 15.26 58.94 15.13L58.94 15.13L58.94 15.13Q58.80 15.01 58.76 14.90Z"></path></g><defs data-v-fde0c5aa=""><!----></defs><g data-v-fde0c5aa="" id="59605835-de66-40f8-9f70-3a720abb98db" stroke="none" fill="#000000" transform="matrix(625.3076171875,0,0,625.3076171875,46.18916437098257,13.373737373737384)"><defs><style>.fil0,.fil1{fill:#000}.fil1{fill-rule:nonzero}</style></defs><path class="fil0" d="M.262.113A.025.025 0 0 1 .28.155.025.025 0 1 1 .262.113zm.012.012A.017.017 0 1 0 .25.15.017.017 0 0 0 .274.125z"></path><path class="fil1" d="M.262.123a.015.015 0 1 1 0 .03.015.015 0 0 1 0-.03zM.258.136c0-.004 0-.011-.005-.006A.012.012 0 0 0 .25.138c0 .01.005.002.008-.002zM.264.134c.004 0 .011 0 .007-.005A.012.012 0 0 0 .26.126c-.009 0 0 .005.003.008zM.266.14c.001.004 0 .011.005.007a.012.012 0 0 0 .004-.01c0-.009-.005 0-.009.003zM.26.142C.257.143.25.142.254.147a.012.012 0 0 0 .008.004C.272.15.264.146.26.142zM.258.137L.252.143c.003 0 .012 0 .006-.006zm.002 0L.262.14.264.14.263.136.26.138zM.263.135L.257.128c0 .003.001.012.006.006zm.002.004V.14L.273.133c-.004.001-.01 0-.007.005zM.261.142l.006.006c0-.003 0-.012-.006-.006z"></path><path class="fil0" d="M.089.109L.095.107A.209.209 0 0 1 .153.092C.181.089.208.087.231.09L.313.1C.315.105.315.105.312.107v.016c.006 0 .004 0 .005.007C.312.133.314.133.313.138L.29.145a.029.029 0 1 0-.051.009H.108a.027.027 0 0 0-.05 0H.021C.02.15.02.153.022.148L.016.137A.197.197 0 0 1 .09.11zM.31.108v.016c-.002.002 0 .001-.004 0L.307.11.31.108zm-.293.03L.02.139C.02.143.024.146.023.148c0 .003 0 .002.001.002L.026.15C.027.147.025.142.023.139L.035.134.02.14.017.138zM.109.119C.139.116.16.116.2.108l.022.004C.212.13.209.14.192.142l-.08.004L.18.14C.206.139.217.124.2.113A.498.498 0 0 1 .11.12zM.102.109A.248.248 0 0 1 .153.096a.593.593 0 0 1 .06-.003L.233.1.184.105A.272.272 0 0 1 .102.11z"></path><path class="fil0" d="M.082.12a.023.023 0 1 1 0 .047.023.023 0 0 1 0-.047zm.012.012A.016.016 0 1 0 .07.155.016.016 0 0 0 .094.132z"></path><path class="fil1" d="M.082.13a.014.014 0 1 1 0 .028.014.014 0 0 1 0-.029zM.08.141C.078.138.078.132.074.135A.012.012 0 0 0 .07.144c0 .009.004.001.008-.002zM.084.14C.088.139.094.14.091.135A.012.012 0 0 0 .082.132C.073.132.081.136.084.14zm.002.005c.001.004 0 .011.005.007A.012.012 0 0 0 .094.143C.094.134.09.142.086.145zM.081.147C.077.148.07.147.074.152a.012.012 0 0 0 .009.003C.092.155.084.151.08.147zM.079.143L.073.148c.003 0 .011 0 .006-.005zm.001 0l.002.003.002-.002L.083.142.08.143zM.083.14L.078.134c0 .003 0 .011.005.006zm.002.004h.001L.092.14c-.005 0-.01 0-.007.005zM.082.147l.005.006c0-.003 0-.011-.005-.006z"></path><path class="fil0" d="M.262.22A.025.025 0 0 0 .28.178.025.025 0 1 0 .262.22zM.274.208A.017.017 0 1 1 .25.183a.017.017 0 0 1 .024.025z"></path><path class="fil1" d="M.262.21a.015.015 0 1 0 0-.03.015.015 0 0 0 0 .03zM.258.197c0 .004 0 .011-.005.007A.012.012 0 0 1 .25.194c0-.009.005 0 .008.003zM.264.2C.268.2.275.2.271.204a.012.012 0 0 1-.01.004c-.009 0 0-.005.003-.009zM.266.193C.267.19.266.182.271.187a.012.012 0 0 1 .004.008C.275.205.27.197.266.193zM.26.191C.257.191.25.191.254.186A.012.012 0 0 1 .262.183C.272.183.264.188.26.19zM.258.196L.252.19c.003 0 .012.001.006.006zm.002 0L.262.193l.002.002-.001.002L.26.196zm.003.003L.257.205c0-.003.001-.012.006-.006zM.265.195L.273.2C.268.2.262.2.265.195zM.261.191L.267.186c0 .002 0 .011-.006.005z"></path><path class="fil0" d="M.089.225l.006.001a.209.209 0 0 0 .058.016c.028.002.055.004.078.001L.313.232C.315.228.315.228.312.226V.21C.317.21.315.21.316.203.312.2.314.2.313.195L.29.188A.029.029 0 1 1 .239.18H.108a.027.027 0 0 1-.05 0H.021C.02.183.02.18.022.186l-.006.01A.197.197 0 0 0 .09.225zm.221 0V.21C.308.208.31.208.306.209l.001.014.003.003zM.017.196L.02.195C.02.19.024.188.023.185L.024.183l.002.002C.027.186.025.19.023.195l.012.004L.02.195H.017zm.092.02C.139.217.16.216.2.224L.222.222C.212.204.209.194.192.19L.112.188.18.195C.206.195.217.21.2.22A.498.498 0 0 0 .11.214zM.102.222c.017.008.04.014.051.016a.593.593 0 0 0 .06.002l.02-.007L.184.228A.272.272 0 0 0 .102.223z"></path><path class="fil0" d="M.082.213a.023.023 0 1 0 0-.046.023.023 0 0 0 0 .046zM.094.202A.016.016 0 1 1 .07.178a.016.016 0 0 1 .023.024z"></path><path class="fil1" d="M.082.204a.014.014 0 1 0 0-.029.014.014 0 0 0 0 .03zM.08.192C.078.195.078.202.074.198A.012.012 0 0 1 .07.19c0-.01.004-.002.008.002zm.005.002c.004 0 .01 0 .007.004a.012.012 0 0 1-.009.004C.073.202.081.197.084.194zM.086.188c.001-.004 0-.01.005-.006A.012.012 0 0 1 .094.19C.094.2.09.191.086.188zM.081.186C.077.185.07.186.074.181A.012.012 0 0 1 .083.178C.092.178.084.183.08.186zM.079.191L.073.185C.076.185.084.186.08.19zm.001 0L.082.187l.002.001-.001.003L.08.19zm.003.002L.078.2c0-.002 0-.011.005-.006zM.085.19L.086.189l.006.006C.087.194.082.195.085.19zM.082.186L.087.181c0 .002 0 .01-.005.005zM.317.167H.019V.166z"></path></g><!----></svg>