<?xml version="1.0"?>
<svg xmlns:rdf="http://www.w3.org/1999/02/22-rdf-syntax-ns#" xmlns="http://www.w3.org/2000/svg" xmlns:cc="http://creativecommons.org/ns#" xmlns:dc="http://purl.org/dc/elements/1.1/" xmlns:svg="http://www.w3.org/2000/svg" id="svg2644" viewBox="0 0 412.1 219.44" version="1.0">
  <g id="layer1" transform="translate(-87.386 -32.16)">
    <path id="path2751" d="m236.87 217.23c65.947 0.8422 131.53 4.1351 198.17 0.33189 20.422-3.4893 40.253-11.885 61.308-10.104 2.759-2.3106 4.9947-5.2803 0.84253-16.296l-262.82 0.67624 2.5058 25.391z" fill="#fff" fill-rule="evenodd"/>
    <path id="path6423" fill-rule="evenodd" fill="#b3c8e7" d="m200.13 201.69l7.4785-69.643 30.915 63.237 59.219-0.40364c5.0318-4.7928 2.9709-12.772 4.6816-19.057 0.63047-12.696 9.222-3.6597 9.9937 3.5083 1.461 4.8901 1.6237 10.139 2.5798 15.169 43.23-1.0118 86.48-2.0008 129.72-2.0631 13.926 1.1094 27.694-1.557 41.522-2.7789 2.9128-7.9261 5.65-16.072 3.9371-24.599-0.54098-9.9234-0.78473-19.904-4.9025-29.134-2.854-7.4614-3.5671-16.152-10.214-21.436-6.4274-8.2843-16.692-12.387-26.559-15.036-12.646-3.4216-26.109-2.203-39.118-3.2756-18.454-0.78976-36.456-5.7751-54.86-7.4004-25.104-1.4934-50.351-1.0364-75.512-1.7681-14.162 0.01915-28.427-1.0176-42.525-0.34947-20.155 4.3444-40.311 8.6888-60.466 13.033-1.8296 7.6599-3.2812 8.3681-4.2445 0.1005-2.3434-5.9356-8.8991-1.7284-13.616-1.8449-5.114 1.4279-6.0476-9.1181-11.374-6.7938-10.688 2.3051-21.875 3.0779-31.494 8.7432-7.6886 2.9372-15.578 6.8004-18.822 14.921-8.5496 15.213-9.5568 33.368-8.594 50.461 0.99151 13.588 2.7844 27.86 9.5872 39.841 4.0881 8.8163 3.6923-0.8878 4.5163-5.5531 2.8484-21.431 5.6969-42.862 8.5454-64.292 4.5166 17.827 10.38 35.39 11.733 53.838 1.0246 7.829 2.0491 15.658 3.0737 23.487 24.115 4.9619 48.788 6.08 73.185 9.0994 0.53771-6.6701 1.0754-13.34 1.6131-20.01z"/>
    <path id="path6690" fill-rule="evenodd" fill="#86a2c9" d="m487.15 141.67c-2.3263 3.848-1.91 11.286-5.9844 12.745-4.8545 0.0423-9.9256 0.44063-12.216 5.411-6.5287 6.8899-16.67 3.5807-24.871 2.2104-5.6599-2.0206-6.013 7.1744-9.167 10.45-4.0948 6.4328-10.378 11.689-17.408 14.411-11.326 3.5471-22.985 5.1752-34.832 5.4104-14.252 0.77199-28.657 0.91136-42.867 0.65949-8.7824-2.4265-17.553-5.8828-25.115-10.776-5.0828-5.8796-5.5092-14.299-10.714-20.12-7.709 0.74081-14.778 4.5856-22.719 4.4032-5.5345 1.9076-9.8238-0.54637-13.711-4.4081-4.324-3.6707-10.409-6.1324-10.691-12.578-2.8472-7.9101-3.926-16.907-8.5768-23.896-3.7821-3.9092-6.4837-9.2-11.948-10.958-1.1664-6.5782-8.1125-0.24133-12.266-2.5708-5.9119 0.52742-11.614 2.2408-17.665 1.9363-5.6308 0.49571-10.872 2.399-16.701 2.1767-13.45 1.1052-27.249 1.459-40.383-2.0715-10.481 2.785-21.082-3.6268-31.402 0.36402-5.8848 3.507-8.308-2.0268-11.242-6.2258-2.8068-6.3481-8.1231 2.2809-9.9416 5.4887-8.7187 15.701-10.061 34.098-9.0645 51.708 0.42662 7.4027 1.4141 14.885 2.5648 22.141 2.7126 7.4803 4.2137 15.885 9.9434 21.8-0.82362-7.9814-0.83472-15.894 1.7058-23.593 3.4344-15.35 6.8688-30.7 10.303-46.051 6.7434 23.478 8.6726 47.932 12.838 71.932 21.777 5.7622 44.431 6.2678 66.675 9.2298 6.7798 2.5405 8.952-0.92176 8.755-7.4708 2.3546-10.244-1.891-20.479-2.7214-30.719-2.9027-14.689 1.5372-29.437 3.7779-43.927 4.0792-1.633 8.5582-9.4669 12.144-3.4452 7.0071 4.9993 7.389 14.541 11.094 21.804 4.7184 12.566 7.9422 25.642 12.02 38.426 53.602 0.29762 107.19-1.3865 160.78-2.2513 28.159-0.52912 56.322-1.0617 84.487-1.0339 6.6549-1.5838 5.9059-9.8105 7.7017-15.118 1.2897-8.6593-0.39488-17.638-0.66026-26.384-0.64136-3.0372-1.2827-6.0743-1.9241-9.1115z"/>
    <path id="path6621" fill-rule="evenodd" fill="#86a2c9" d="m445.37 106.77c-1.3005 0.71252-2.6011 1.425-3.9016 2.1376 0.32315 1.7569 0.33577 3.5886 1.0192 5.2587 1.1145 3.338 2.3076 6.6563 3.373 10.006 0.60763 3.6045 1.1373 7.2357 1.7935 10.824 0.93962 1.6414 1.7551 3.3638 2.7733 4.9539 0.80327 0.99704 1.5314 2.0888 2.3808 3.0277 0.85176 0.34345 1.6882 0.8471 2.5494 1.0922 2.4817-0.59129 4.9634-1.1826 7.4451-1.7738 1.2675-1.882 2.631-3.7246 3.8387-5.6312 0.37537-2.1106 0.75075-4.2212 1.1261-6.3318-0.76333-1.5616-1.6496-3.0737-2.3361-4.6662l-1.4163-4.7074c-1.0729-0.90251-2.2167-1.7453-3.2461-2.6845-0.81282-1.3922-1.5481-2.8529-2.4087-4.203l-8.7501-6.4821-4.2402-0.81997z"/>
    <path id="path6842" fill-rule="evenodd" fill="#86a2c9" d="m391.54 110.31c-4.2849-1.368-9.5413-0.80123-12.62-4.5704-8.5472 0.35934-17.045-0.22163-25.512-1.3978-5.9966 0.0258-12.271 2.3421-17.925-0.45415-9.404-2.7025-19.737 1.9041-28.807-2.7154-4.6184-1.6205-9.2259-4.3071-13.851-5.2652-6.244 1.9364-12.078 6.056-18.845 5.205-4.8276-0.49365-9.4033 0.56911-13.859 2.3732-6.3397 1.6527-12.7 5.3145-19.353 4.2901-7.1398-1.5524-14.154-4.5141-21.457-4.8073-15.665 1.3423-31.331 2.6846-46.996 4.0268 2.2254-3.9566 4.4508-7.9132 6.6761-11.87 27.947-3.9959 55.881-8.2566 83.837-12.087 34.701 1.4789 69.444 2.6631 104.12 4.3261 11.49 2.9224 22.956 5.947 34.587 8.2698 10.779 9.0735 21.558 18.147 32.337 27.22 0.087 3.7088 2.4989 7.8745-0.45803 10.985-2.0842 2.0791-2.4461 7.7833-6.1298 6.4959-10.086-1.065-19.51-5.1329-29.12-8.1065-3.5543-1.0374-5.3221-3.7298-6.3162-7.1391-1.9954-4.333-0.07-9.3757-0.34552-14.02l0.0277-0.53724 0.0115-0.22201 0.00001-0.00009z"/>
    <path id="path6838" fill-rule="evenodd" fill="#86a2c9" d="m313.52 124.97c0.37165 4.5293 1.1108 9.3128-0.99724 13.571-0.54831 1.4962-1.2374 2.9538-2.9271 3.279-1.5214 0.67698-3.021 1.4337-4.7254 1.4423-1.1686 0.205-2.335 0.38849-3.4189-0.22652-2.4535-0.81012-4.8823-1.7716-7.351-2.4887-6.9082 0.069-13.816 0.13808-20.724 0.20712-3.2405-4.4761-6.618-8.864-9.7725-13.395-1.084-1.8495-2.0326-3.8151-3.1994-5.5937-5.7109-4.4632-11.422-8.9264-17.133-13.39 7.8483 5.2249 15.697 10.45 23.545 15.675 0.90955-1.4917 2.1037-2.9081 2.8406-4.4454-0.0358-1.474-0.34698-3.0161-0.21717-4.4491 2.8665-4.612 5.733-9.2241 8.5995-13.836 11.827 7.8835 23.654 15.767 35.481 23.65z"/>
    <path id="path6605" fill-rule="evenodd" fill="#ccc" d="m121.88 185.1c-0.0621 5.0088-0.0167 10.026-0.14572 15.029-0.71168 4.6827-1.3455 9.3853-2.1057 14.056-1.199 3.2315-2.398 6.463-3.597 9.6944-1.158 0.68285-2.316 1.3657-3.4739 2.0486-0.85719-0.52367-1.927-0.8573-2.6567-1.4949-1.7143-4.4907-3.5179-8.9587-5.1766-13.464-0.56738-4.6172-1.2878-9.2247-1.7589-13.848 0.0556-5.0772-0.0383-10.165 0.11099-15.235l2.5239-18.707c2.7753-2.2737 5.5506-4.5474 8.326-6.8211 0.81028 0.68623 1.9401 1.1139 2.5447 1.9665 0.80168 2.0574 1.8471 4.042 2.4966 6.1448 0.77772 4.2276 1.6098 8.4471 1.9892 12.734 0.30774 2.632 0.61539 5.2642 0.9232 7.8961z"/>
    <path id="path6603" fill-rule="evenodd" fill="#ccc" d="m227.67 194.01c0.29152 5.9125 0.68317 11.831 0.91219 17.74-1.1059 6.5433-2.5933 13.011-3.9717 19.5-1.1398 1.6614-2.2797 3.3227-3.4195 4.9841-1.9114 0.002-3.8227 0.005-5.734 0.007-1.9283-2.9468-3.9898-5.8343-5.8349-8.8181-1.996-8.0278-4.1164-16.043-6.0348-24.079 0.38243-7.9535 0.68203-15.919 1.1162-23.865 1.3095-5.3231 2.619-10.646 3.9286-15.969 2.3063-1.1387 4.5645-2.5114 6.9004-3.5058 1.0782 0.1706 2.3449 0.003 3.3122 0.37254 1.6755 2.3884 3.5441 4.6987 5.0994 7.1357 1.242 8.8327 2.484 17.665 3.726 26.498z"/>
    <path id="path6696" fill-rule="evenodd" fill="#93948f" d="m326.33 203.03c-11.347 0.28393-22.716 1.3757-34.009-0.27745-3.8328-1.8451-4.5932 3.248-8.3764 1.9598-8.2366 0.0436-16.373-1.8604-24.641-1.2131-3.3844-0.96644-5.765 1.7586-8.9512 1.7982-4.4344-0.62334-8.806-1.8661-13.213-2.7417-3.6245 1.9736-1.904 5.2596-0.99553 8.3461 1.33 2.4742 6.0852 0.74238 8.7442 1.5846 17.019 1.3748 34.107 0.15273 51.161 0.47692 4.5284-0.9985 4.2592 6.1533 8.3628 6.7805 2.442 1.2059 7.2822 2.6808 8.3401-0.67757 1.8498-2.4383 2.0641-7.0787 5.9223-6.8127 9.9172-2.3219 20.208-1.1769 30.307-1.8075l82.855-1.9159c4.6652 1.9424 10.399 2.9152 13.485 7.1416 0.36036 3.1593 1.3622 7.7628 5.3277 5.2706 2.7051-1.9421 6.3038-3.3535 5.6013-7.319-0.67178-4.4815 1.8821-5.2789 5.8145-4.5018 10.918 0.21562 21.836 0.40262 32.748 0.85783 2.6924-2.4719 4.764-4.9472 0.89696-7.4542-1.7981-3.261-4.3642-4.5743-7.9635-3.2666-8.8063 0.99952-17.587 2.6829-26.471 1.6131-40.611-0.67612-81.212 1.1593-121.81 1.8566-4.3768 0.1007-8.7546 0.20055-13.131 0.30179z"/>
    <path id="path6834" fill-rule="evenodd" fill="#93948f" d="m211.08 181.5c-0.4378 1.4354-0.99632 2.845-1.3571 4.2969-0.18741 1.9623-0.45864 3.9216-0.59337 5.8858 0.11281 2.8751 0.17129 5.7558 0.31807 8.6275 0.4914 2.766 0.92714 5.5503 1.4532 8.305 0.75315 1.457 1.4237 2.9688 2.2283 4.3918 0.76503 0.89288 1.5301 1.7858 2.2951 2.6786 1.7092-0.5608 3.4184-1.1216 5.1276-1.6824 1.4002-2.5987 2.8005-5.1975 4.2007-7.7962 0.0383-3.2878 0.0765-6.5755 0.11474-9.8633-2.5761-0.1771-5.1521-0.35421-7.7282-0.53131-0.14423-1.9109-0.22887-3.8351-0.41015-5.7377-1.0813-2.7805-2.1625-5.561-3.2438-8.3415-0.80171-0.0777-1.6034-0.15545-2.4051-0.23318z"/>
    <path id="path6836" fill-rule="evenodd" fill="#93948f" d="m108.16 176.53c-0.62213 2.9776-1.2092 5.9662-1.6781 8.97 0.15539 3.5986 0.0868 7.2007 0.10027 10.801 0.53789 2.005 1.0265 4.0309 1.595 6.023 0.90238 1.4975 1.8048 2.995 2.7071 4.4926 1.2341 0.72014 2.1505 2.1194 3.6692 2.2387 1.498-0.16204 2.157-1.7642 2.7338-2.9578 0.55678-1.3825 1.1254-2.8002 1.3785-4.2674 0.15642-3.746 0.31283-7.492 0.46925-11.238-2.3301-0.46606-4.6602-0.93211-6.9903-1.3982-0.26515-2.8853-0.53029-5.7706-0.79544-8.656-1.0631-1.3361-2.1263-2.6722-3.1894-4.0084z"/>
    <path id="path2650" fill-rule="evenodd" fill="#93948f" d="m158.11 75.935c-4.7968 2.1435-10.979 5.6663-9.9848 11.823-0.57015 3.7468 3.7973 5.3227 4.9128 8.6185 1.8266 3.5291 6.3489 3.8741 9.8625 3.0704 3.0697 0.33382 7.514-3.4271 7.5315 1.6305 1.0103 2.2589 1.3108 8.8696 4.2914 4.9055 0.72014-3.3467 1.7933-6.3398 5.707-6.4873 9.5618-2.803 18.758-7.2116 28.82-7.8183 10.529-1.2316 21.046-3.0881 31.583-3.9299 4.7982 0.22727 9.7702 1.8585 14.227-0.67348 5.7883-2.961 12.427-1.214 18.67-1.6679 23.438-0.43016 46.801 1.8089 70.195 2.8946 17.552 0.46744 34.796 4.0634 52.059 6.9769 2.6005 3.6501 5.367-0.72395 2.6103-3.4356-4.6444-10.226-9.8106-20.27-15.208-30.133-4.6441-7.438-7.7086-16.015-14.192-22.127-5.525-4.6866-13.329-4.6734-20.216-5.1723-31.611-1.4171-63.248-2.8894-94.897-1.9591-13.548 0.06886-27.087 0.31644-40.567 1.7811-9.5848 0.78911-19.29 1.1007-28.799 2.1885-5.6988 1.6448-9.474 6.7758-10.546 12.458-2.8441 7.0484-1.451 14.837-2.4251 22.244-0.20352 3.2478-0.32666 6.503-0.81755 9.7242-3.7474-1.8813-6.801-6.0574-11.393-4.9417-0.4744 0.01011-0.94889 0.0202-1.4232 0.03031z"/>
    <path id="path4549" d="m444.62 207.09c-0.55384 3.1452-3.9977 2.5857-6.2386 1.9017-2.3308-0.53631-4.6792-0.99315-7.0179-1.4939-0.55363 3.0395-0.63844 6.205-1.7069 9.1186-1.1978 2.2495-5.4783-0.94572-5.4318 2.5973-0.12069 2.1798-0.25029 4.7554 1.5769 6.2521 2.3317 4.2601 3.4306 9.1032 6.1765 13.158 1.9065 2.9218 4.2515 6.1904 7.9497 6.7811 5.7431 0.91699 11.596 1.5409 17.416 1.1648 5.1428-0.28808 10.392-2.4466 13.388-6.7986 4.4107-6.3206 5.7972-14.092 7.3911-21.484 0.65583-3.1485 1.3117-6.297 1.9675-9.4455-7.1207-0.41196-14.25-0.68235-21.378-0.87604-3.1564-0.0878-4.4811 3.2019-4.6547 5.8522 0.03 3.109-3.4064 1.7188-4.859 2.4809 0.75854 1.2088 2.3588 5.4587-0.50608 4.0693-2.0348-2.8332-2.0118-6.6583-1.5773-9.9842 0.007-1.5229 0.96207-5.5627-1.2428-5.4182-0.61191 0.56881-0.9344 1.3711-1.2532 2.1239z"/>
    <path id="path6601" fill-rule="evenodd" fill="#ccc" d="m354.18 144.08c-10.61 0.63198-21.204 1.4519-31.759 2.7178-4.7053 0.0676-8.9938 2.0766-13.426 3.4177-1.935 1.7463-4.3744 3.2176-5.9932 5.1363-0.51444 2.4303-0.23384 5.0271 0.91897 7.2082 3.4168 4.4312 6.5494 9.1164 10.042 13.464 3.3638 3.0056 6.8086 6.1131 10.929 8.0021 8.6987 3.4318 17.964 5.0717 27.112 6.757 12.573 0.77561 25.179-0.009 37.734-0.68894 5.7344-1.3097 11.598-2.2077 17.25-3.7799 4.8464-2.1618 9.9067-3.9661 14.618-6.3534 2.5273-2.0256 5.2307-3.8809 6.9075-6.7296 3.0506-3.8417 5.6961-7.9701 8.4042-12.054-0.84085-2.795-1.345-5.7818-2.3966-8.4567-1.6952-1.5619-2.9826-3.7884-5.4759-4.0496-3.7025-1.1049-7.3104-2.7044-11.248-2.5826-15.499-1.1959-31.008-2.2316-46.533-3.0041-5.6254-0.54105-11.229 0.67794-16.845 0.97446l-0.2402 0.0216z"/>
    <path id="path6607" fill-rule="evenodd" fill="#fff" d="m221.36 178.63c1.1644 6.1162 2.3288 12.232 3.4932 18.349-2.6345-0.30327-5.2689-0.60655-7.9034-0.90982-0.0623-1.6355-0.0885-3.277-0.1732-4.9088-1.4125-4.6109-2.8251-9.2218-4.2376-13.833l4.9233-3.1497 3.8977 4.4523z"/>
    <path id="path6609" fill-rule="evenodd" fill="#fff" d="m116.41 173.31l2.293 17.944c-2.3806-0.47965-4.7612-0.95929-7.1417-1.4389-0.12403-3.234-0.22952-6.4702-0.36513-9.703-0.47161-2.3998-0.94322-4.7997-1.4148-7.1996 1.0383-0.68664 2.0765-1.3733 3.1148-2.0599 1.1713 0.81908 2.3426 1.6382 3.5138 2.4572z"/>
    <path id="path6692" fill-rule="evenodd" fill="#fff" d="m298.72 197.34-0.40854-3.8417 0.58729-1.499 0.51276-0.16824 2.6971-18.264c0.4655-4.1336 3.5828-4.4344 6.8774-3.6196l4.1435 11.59 1.7721 7.8244-0.32782 8.0022-15.854-0.0235z"/>
    <path id="path6694" fill-rule="evenodd" fill="#fff" d="m439.53 195.63-1.2311-3.477 2.3006-3.9578 0.28374-4.7709 0.34317-11.064c-0.7957-6.6492 3.0014-9.1724 7.5841-6.7611l2.3757 2.2892 1.6665 3.1536-0.23687 4.2294 1.5264 4.1021 0.89492 5.7534 0.24818 4.8825 3.1905 2.0218 1.4488 3.3153-20.395 0.28359z"/>
    <path id="path4543" d="m206.93 131.41c-10.208 7.9293-10.287 22.06-10.852 33.863-0.50635 15.044 1.9794 29.925 4.2416 44.728 0.24324 4.6869-6.2041 13.027 2.5978 13.127 3.9743 6.4451 5.0887 15.525 11.49 20.978 5.5778 7.1461 14.343 7.9121 22.904 7.3611 8.0572 0.54069 11.027-8.9264 13.462-15.007 1.7917-5.1059 2.2772-10.514 3.1112-15.826 12.718-0.14449 25.472-2.2924 38.142-0.0346 2.4155 0.58407 5.6263 0.13436 7.5807 1.3178 2.335 6.957 7.1441 15.387 15.613 14.565 7.3814-0.75137 17.232 0.0856 21.763-7.0025 1.5223-8.2091 13.815-1.0922 19.9-3.3072 7.0443-1.1965 19.402 3.4396 21.219-6.4466-7.2644-2.3109-15.48-0.64841-23.146-0.9951-8.5501 0.01-17.139 0.30927-25.662-0.40589-1.6223-3.9298 0.76842-10.369-6.4931-8.0344-9.9588-3.4394-8.1365 14.668-17.975 8.1208-3.9342-2.0509-3.0812-12.716-8.3208-8.1451-17.047 1.8005-34.281 1.9449-51.407 1.3898-11.091 0.67099-5.3222-10.463-5.1333-16.482-7.7438-18.235-11.485-38.012-19.914-55.994-2.474-4.0729-7.5226-12.848-13.122-7.7707zm14.748 34.173c4.485 13.322 6.0786 27.583 6.2548 41.598-0.5298 8.9374-2.321 18.275-7.101 25.951-7.7925 4.4596-9.8395-10.372-12.008-15.531-4.1928-17.073-4.1139-35.344 0.7368-52.267 2.6142-5.5333 10.189-6.6731 12.117 0.24868z"/>
    <rect id="rect6765" transform="matrix(.99940 -.034689 .012601 .99992 0 0)" height="11.868" width="103.4" y="213.3" x="325.2" fill="#fff"/>
    <path id="path4566" fill-rule="evenodd" fill="#fff" d="m298.36 96.308c-9.7906-2.4902-14.223 2.234-19.995 5.155-2.4312 5.2332-5.8632 10.013-5.6788 16.43l-0.1659 6.7956 15.008 11.679 12.039 0.82901c4.7252-0.69401 9.043-3.2053 12.48-9.6443 2.5833-3.8929 3.3225-8.333 3.0367-13.077 0.17057-5.6073-2.4452-9.6399-6.4731-12.874-2.7776-2.5438-5.9157-4.648-10.251-5.2932z"/>
    <path id="path4568" fill-rule="evenodd" fill="#fff" d="m431.28 129.48 1.7954-3.227c1.7889-9.5766 1.6273-14.375 0.8761-19.395-1.0764-7.0865-3.5369-8.5607-6.1467-10.889l-7.7436-3.4667-6.1026-0.77696-12.56 3.4201-3.4761 4.0966c-2.152 2.8658-2.5888 8.4009-3.1972 11.904l0.42672 7.9459 17.871 16.708c6.2836-0.16056 12.753-1.0154 18.256-6.3205z"/>
    <path id="path4586" fill-rule="evenodd" fill="#fff" d="m358.19 134.09c1.1884 1.314 2.3768 2.6279 3.5652 3.9419 1.2143 0.037 2.4286 0.074 3.643 0.11102 0.93259-0.53317 1.8652-1.0664 2.7978-1.5995 0.25478-0.34864 0.50957-0.69729 0.76435-1.0459-0.27562-0.94215-0.53452-1.8912-0.82055-2.829-0.55634-1.0092-1.1127-2.0184-1.669-3.0277-0.7836-0.19019-1.5789-0.34096-2.3552-0.55584-1.1575-0.42685-2.3151-0.85371-3.4726-1.2806-0.90455 0.61864-1.8091 1.2373-2.7136 1.8559 0.0869 1.4766 0.17381 2.9532 0.26072 4.4298z"/>
    <path id="path2646" fill-rule="evenodd" fill="#fff" d="m261.13 160.31c-0.66822 1.7717-1.3364 3.5434-2.0046 5.315 0.28567 2.0352 1.1484 4.0814 2.8219 5.3583 1.0188 0.80003 2.1968 1.406 3.3261 2.0028 1.4841-0.22421 2.9682-0.44842 4.4523-0.67263l2.3195-3.3169 0.34239-6.9353c-1.0929-1.2482-2.1857-2.4964-3.2786-3.7445-2.6597 0.66441-5.3194 1.3288-7.979 1.9932z"/>
    <path id="path2648" fill-rule="evenodd" fill="#fff" d="m475.1 155.19c-1.3918 0.53928-2.7835 1.0786-4.1753 1.6178-0.18158 2.4314-0.36316 4.8628-0.54474 7.2942l4.8809 4.0416c2.5756-0.92079 5.1511-1.8416 7.7267-2.7624 0.1034-2.6276 0.20679-5.2552 0.31019-7.8828-1.6568-1.5183-3.776-2.7655-6.0951-2.6669-0.71334 0.0201-1.421 0.1502-2.1026 0.35856z"/>
    <path id="path2652" fill-rule="evenodd" fill="#fff" d="m184.34 42.608c-3.7849 5.4155-4.0067 12.332-4.7905 18.693-1.5128 10.427-1.1051 20.983-1.5212 31.484 3.8392-1.4765 8.2566-2.2763 11.736-4.1737 1.5619-1.9437 1.6819-5.6974 4.3252-6.2834 5.8853-1.5101 11.724-3.3235 17.866-3.1749 7.7872-0.64434 15.576-0.88262 23.368-0.17141 9.0575 0.93192 18.109-0.1021 27.162-0.56042 1.2882-2.8198 4.1153-2.912 6.8229-3.2159 6.1889-0.74174 12.387-2.2546 18.57-2.5237 21.866 3.8611 43.696 7.9481 65.718 10.849 11.817 1.721 23.634 3.4419 35.45 5.1629-7.7838-15.299-15.568-30.598-23.351-45.897-7.7477-6.1138-18.305-4.5694-27.608-4.9139-34.281-0.12606-68.574-0.50131-102.85-0.47164-16.967 1.7322-33.933 3.4645-50.9 5.1967z"/>
    <path id="path3058" fill-rule="evenodd" fill="#fff" d="m339.08 145.35c9.9067-0.74526 19.819-1.5843 29.712-2.393 15.975 0.86841 31.974 1.5171 47.935 2.4952 4.7366 0.9348 9.6698 1.5366 14.078 3.5247 1.8524 1.5953 4.463 2.547 5.2234 5.0695 1.3172 1.8191 1.2432 4.0768 1.5952 6.2002-0.88702 1.7576-1.7912 3.321-3.0469 0.90549-1.5945-1.5706-2.8606-3.622-4.5615-4.9833-3.6091-0.93053-7.2394-1.7052-10.987-1.6162-14.011-0.57579-28.02-1.3979-42.033-1.8182-10.348 0.30397-20.714 0.34487-31.05 0.81451-10.009 1.204-20.075 2.1968-30.049 3.5326-3.1572 1.2036-6.0796 2.8182-8.788 4.8353-1.5838 1.5209-2.818 1.666-3.4202-0.67652-1.2028-1.4572-1.1919-3.0952-0.61223-4.8179 0.25246-1.6686 2.2802-2.3192 3.3439-3.4938 2.3753-1.6139 4.5159-3.7252 7.4981-4.053 4.1846-1.1662 8.3995-2.2055 12.76-2.3594 4.1342-0.38872 8.2683-0.77745 12.402-1.1662z"/>
    <path id="path3060" fill-rule="evenodd" fill="#b3b3b3" d="m431.76 108.42-2.3851-4.4995-5.2052-3.5742-4.2935-1.4879-3.4619-0.51121-3.4836 0.46142-4.6541 2.6062-3.3586 2.9195-1.0552 3.0156-0.98873 3.3914-0.43667 2.1312 0.40854 3.8417 1.5006 3.881 4.159-2.5573 3.9394 0.58172 1.3861-4.4305 7.9846 0.44719 5.9592-0.70575 5.0491 0.50163-1.0639-6.0121z"/>
    <path id="path3062" fill-rule="evenodd" fill="#b3b3b3" d="m310.55 118.45-0.85635-6.5914-1.9468-3.337-2.446-2.4348-6.2268-4.091-3.9218-0.7011-3.9434 0.27153-3.3329 1.0936-3.0141 2.2385-3.349 4.5066-1.5544 3.9178-0.33741 6.4151 4.9458-2.929 0.95656 3.4347 4.0195 1.6914 0.82047-3.9042 20.187 0.41934z"/>
    <path id="path4541" d="m140.34 95.926c-3.1719 0.40308-7.1287 1.0637-8.9424 1.5429-1.8137 0.47913-4.7958 1.2837-6.7313 1.7449-4.3763 0.97218-5.2456 4.3296-1.4687 4.8874 1.462 0.21589 6.1319-0.21496 10.35-0.96145 4.3224-0.60666 11.153-1.3408 15.3-1.6l7.3863-0.27872-2.4604-2.7287c-2.7899-3.0263-5.2087-3.508-13.434-2.6062z"/>
    <path id="path4545" d="m100.24 131.46c-3.5477 6.7996-4.6441 14.605-5.3215 22.166-0.50762 6.0763 1.629 11.959 1.5619 18.036 0.02247 9.2458 1.8991 18.321 2.7868 27.486 0.715 11.548 2.788 23.229 7.5866 33.822 1.6716 4.1267 5.412 7.3702 10.07 7.0784 5.5689 0.17239 11.303 1.575 16.786 0.15899 3.7411-2.0986 4.8159-6.7854 6.5025-10.438 1.2599-4.1298 3.5037-8.5502 2.2727-12.93-2.2509-2.7895-6.3424-2.8092-9.5672-3.8712l-6.7542-1.6144c-2.8501-23.7-5.5922-47.575-12.443-70.517-1.6314-4.4311-2.959-10.319-8.0533-11.914-2.1619-0.5582-4.3056 0.73023-5.4274 2.5377zm16.836 30.995c3.7451 10.841 4.0126 22.518 3.8271 33.879-0.47025 8.1546-0.70316 16.738-4.4315 24.17-1.2824 4.385-6.4147 4.6538-7.4292 0.006-6.0353-14.149-6.2472-30.108-4.0824-45.127 0.82898-6.1977 2.1537-13.147 7.6073-17.004 2.6194-1.4416 3.7296 2.3898 4.5087 4.0763z"/>
    <path id="path4547" d="m410.69 195.73c-19.736 0.44696-79.255 1.3684-80.108 1.2424-0.85286-0.12594-0.0142 17.8 0.92042 19.059 0.72692 0.97879 24.502 1.0037 75.574-0.0446 20.729-0.42488 21.234-0.47475 21.544-3.4168 0.71397-7.3642 0.55141-17.223-0.19761-17.209-0.50534 0.0499-8.4828 0.1168-17.733 0.36932z"/>
    <path id="path4551" d="m164.98 207.25c-0.44979 3.0459 3.4203 9.7176 3.9919 6.6897 0.39581-2.6804-1.3352-8.6627-2.6754-8.8606-0.48734-0.072-1.1366 0.9526-1.3165 2.171z"/>
  </g>
  <metadata>
    <rdf:RDF>
      <cc:Work>
        <dc:format>image/svg+xml</dc:format>
        <dc:type rdf:resource="http://purl.org/dc/dcmitype/StillImage"/>
        <cc:license rdf:resource="http://creativecommons.org/licenses/publicdomain/"/>
        <dc:publisher>
          <cc:Agent rdf:about="http://openclipart.org/">
            <dc:title>Openclipart</dc:title>
          </cc:Agent>
        </dc:publisher>
        <dc:title>frogeye</dc:title>
        <dc:date>2012-03-29T14:30:24</dc:date>
        <dc:description>Austin Healey Sprite</dc:description>
        <dc:source>http://openclipart.org/detail/169212/frogeye-by-madelvic</dc:source>
        <dc:creator>
          <cc:Agent>
            <dc:title>madelvic</dc:title>
          </cc:Agent>
        </dc:creator>
        <dc:subject>
          <rdf:Bag>
            <rdf:li>1950s</rdf:li>
            <rdf:li>austin</rdf:li>
            <rdf:li>automobile</rdf:li>
            <rdf:li>car</rdf:li>
            <rdf:li>clip art</rdf:li>
            <rdf:li>clipart</rdf:li>
            <rdf:li>frogeye</rdf:li>
            <rdf:li>healey</rdf:li>
            <rdf:li>sports</rdf:li>
            <rdf:li>sprite</rdf:li>
          </rdf:Bag>
        </dc:subject>
      </cc:Work>
      <cc:License rdf:about="http://creativecommons.org/licenses/publicdomain/">
        <cc:permits rdf:resource="http://creativecommons.org/ns#Reproduction"/>
        <cc:permits rdf:resource="http://creativecommons.org/ns#Distribution"/>
        <cc:permits rdf:resource="http://creativecommons.org/ns#DerivativeWorks"/>
      </cc:License>
    </rdf:RDF>
  </metadata>
</svg>
